# xmcd
#
# Track frame offsets: 
#        150
#        13211
#        33591
#        46266
#        67690
#        85166
#        103173
#        119106
#
# Disc length: 1803 seconds
#
# Revision: 0
# Processed by: cddbd v1.5.1PL2 Copyright (c) Steve Scherf et al.
# Submitted via: ExactAudioCopy v0.95b4
#
DISCID=67070908
DTITLE=Stacey Bowman - Sweet Heavens Child
DYEAR=2005
DGENRE=Country
TTITLE0=I'm Tryin To Remember Me
TTITLE1=When God Dips A Pen Of Love In My Heart
TTITLE2=Sweet Little Jesus Boy
TTITLE3=Go Rest High
TTITLE4=Sweet Little Heavens Child
TTITLE5=Heaven
TTITLE6=A Man Of Integrity
TTITLE7=Jesus Is There Through It All
EXTD=
EXTT0=
EXTT1=
EXTT2=
EXTT3=
EXTT4=
EXTT5=
EXTT6=
EXTT7=
PLAYORDER=
